<svg width="375" height="190" viewBox="0 0 375 190" fill="none" xmlns="http://www.w3.org/2000/svg">
    <path d="M375 0H0V190H375V0Z" fill="#1F1A1A"/>
    <path d="M356.456 174.428C361.832 174.428 366.19 170.07 366.19 164.694C366.19 159.318 361.832 154.96 356.456 154.96C351.08 154.96 346.722 159.318 346.722 164.694C346.722 170.07 351.08 174.428 356.456 174.428Z" fill="#FFAE42"/>
    <path d="M376.229 115.972C356.792 115.972 338.152 123.693 324.408 137.437C310.664 151.181 302.943 169.821 302.943 189.258C302.943 208.695 310.664 227.335 324.408 241.079C338.152 254.823 356.792 262.544 376.229 262.544C395.666 262.544 414.306 254.823 428.05 241.079C441.794 227.335 449.515 208.695 449.515 189.258C449.515 169.821 441.794 151.181 428.05 137.437C414.306 123.693 395.666 115.972 376.229 115.972V115.972ZM376.229 247.12C360.883 247.12 346.166 241.024 335.314 230.173C324.463 219.321 318.367 204.604 318.367 189.258C318.367 173.912 324.463 159.195 335.314 148.343C346.166 137.492 360.883 131.396 376.229 131.396C391.575 131.396 406.293 137.492 417.144 148.343C427.995 159.195 434.092 173.912 434.092 189.258C434.092 204.604 427.995 219.321 417.144 230.173C406.293 241.024 391.575 247.12 376.229 247.12V247.12Z" fill="#FFF5C2"/>
    <path d="M19.749 123.941L6.88202 136.806C6.22669 136.687 5.57036 136.58 4.91302 136.484L18.013 123.384C18.5923 123.561 19.171 123.747 19.749 123.941Z" fill="#FFAE42"/>
    <path d="M25.5881 126.147L13.3641 138.371C12.7731 138.192 12.1771 138.021 11.5811 137.863L23.9661 125.478C24.5081 125.693 25.0501 125.918 25.5881 126.147Z" fill="#FFAE42"/>
    <path d="M31.038 128.746L19.272 140.51C18.7327 140.279 18.19 140.059 17.644 139.848L29.524 127.968C30.03 128.221 30.5347 128.48 31.038 128.746Z" fill="#FFAE42"/>
    <path d="M6.69702 120.894L-8.45697 136.048C-9.30964 136.115 -10.162 136.203 -11.014 136.314L4.66205 120.637C5.34272 120.712 6.02102 120.798 6.69702 120.894Z" fill="#FFF5C2"/>
    <path d="M13.4741 122.166L-0.310974 135.951C-1.04431 135.909 -1.78063 135.881 -2.51996 135.868L11.5991 121.749C12.2251 121.878 12.8501 122.017 13.4741 122.166Z" fill="#FFF5C2"/>
    <path d="M36.131 131.699L24.686 143.144C24.192 142.868 23.695 142.603 23.193 142.344L34.716 130.821C35.1907 131.107 35.6623 131.4 36.131 131.699Z" fill="#FFF5C2"/>
    <path d="M40.8921 134.987L29.656 146.223C29.202 145.907 28.7444 145.601 28.2831 145.304L39.5691 134.017C40.0124 134.334 40.4534 134.657 40.8921 134.987Z" fill="#FFF5C2"/>
    <path d="M45.3331 138.594L34.212 149.714C33.7967 149.362 33.3774 149.017 32.954 148.679L44.1 137.535C44.5147 137.884 44.9257 138.237 45.3331 138.594Z" fill="#FFF5C2"/>
    <path d="M49.467 142.507L38.377 153.597C38.199 153.414 38.02 153.233 37.839 153.051C37.639 152.851 37.439 152.651 37.231 152.451L48.321 141.36C48.521 141.56 48.726 141.76 48.929 141.96C49.1104 142.141 49.2897 142.323 49.467 142.507Z" fill="#FFF5C2"/>
    <path d="M53.299 146.723L42.156 157.866C41.818 157.444 41.4723 157.026 41.119 156.611L52.24 145.491C52.5987 145.898 52.9517 146.309 53.299 146.723Z" fill="#FFF5C2"/>
    <path d="M56.821 151.248L45.537 162.532C45.2377 162.071 44.931 161.614 44.617 161.161L55.8501 149.927C56.1801 150.364 56.5037 150.804 56.821 151.248Z" fill="#FFF5C2"/>
    <path d="M60.0201 156.096L48.5 167.616C48.242 167.114 47.9754 166.616 47.7 166.123L59.141 154.682C59.4417 155.151 59.7347 155.622 60.0201 156.096Z" fill="#FFF5C2"/>
    <path d="M62.8831 161.285L51.012 173.156C50.798 172.612 50.5761 172.07 50.3461 171.53L62.1041 159.771C62.3701 160.274 62.6297 160.778 62.8831 161.285Z" fill="#FFF5C2"/>
    <path d="M65.377 166.834L53.001 179.211C52.8404 178.615 52.6701 178.021 52.4901 177.43L64.704 165.216C64.936 165.753 65.1603 166.293 65.377 166.834Z" fill="#FFF5C2"/>
    <path d="M67.4741 172.785L54.39 185.869C54.2927 185.212 54.1837 184.558 54.063 183.905L66.92 171.048C67.113 171.624 67.2971 172.204 67.4741 172.785Z" fill="#FFF5C2"/>
    <path d="M69.1201 179.187L55.02 193.287C55.0047 192.554 54.975 191.82 54.931 191.087L68.699 177.319C68.8524 177.939 68.9927 178.562 69.1201 179.187Z" fill="#FFF5C2"/>
    <path d="M70.239 186.117L54.596 201.762C54.7 200.913 54.786 200.062 54.854 199.21L69.981 184.083C70.0777 184.76 70.1637 185.438 70.239 186.117Z" fill="#FFF5C2"/>
    <path d="M70.7141 193.69C70.7051 192.947 70.685 192.201 70.653 191.458C70.581 189.675 70.443 187.894 70.239 186.117C70.1637 185.438 70.0774 184.76 69.98 184.083C69.7494 182.444 69.4627 180.81 69.1201 179.183C68.9867 178.557 68.8467 177.933 68.7 177.311C68.3413 175.79 67.9327 174.28 67.474 172.781C67.297 172.201 67.113 171.62 66.92 171.044C66.4494 169.626 65.935 168.221 65.377 166.83C65.161 166.289 64.937 165.75 64.705 165.212C64.1377 163.888 63.5293 162.578 62.88 161.281C62.63 160.775 62.3703 160.27 62.101 159.767C61.4477 158.528 60.754 157.303 60.02 156.093C59.734 155.618 59.4417 155.146 59.143 154.679C58.405 153.518 57.631 152.374 56.821 151.245C56.503 150.801 56.1794 150.361 55.85 149.924C55.0347 148.837 54.1843 147.771 53.299 146.724C52.951 146.31 52.5981 145.899 52.2401 145.492C51.3481 144.477 50.4237 143.483 49.467 142.508C49.2897 142.325 49.1104 142.143 48.929 141.962C48.729 141.762 48.5291 141.562 48.3211 141.362C47.3444 140.406 46.3487 139.483 45.3341 138.594C44.9267 138.235 44.5157 137.882 44.101 137.535C43.0497 136.651 41.98 135.802 40.892 134.987C40.4534 134.654 40.0124 134.33 39.569 134.017C38.4404 133.208 37.2944 132.436 36.1311 131.7C35.6644 131.4 35.1924 131.108 34.715 130.824C33.5057 130.091 32.28 129.398 31.038 128.746C30.5354 128.479 30.0307 128.22 29.5241 127.968C28.2267 127.321 26.9147 126.714 25.588 126.147C25.05 125.918 24.508 125.693 23.965 125.478C22.5724 124.92 21.1667 124.408 19.7481 123.941C19.1701 123.747 18.5904 123.562 18.009 123.387C16.5084 122.93 14.9964 122.523 13.473 122.166C12.8497 122.017 12.225 121.877 11.599 121.748C9.97301 121.408 8.33971 121.123 6.69904 120.894C6.02238 120.797 5.34401 120.712 4.66401 120.637C2.88534 120.437 1.10234 120.301 -0.68499 120.23C-1.42899 120.199 -2.17398 120.18 -2.91998 120.174C-4.89798 120.155 -6.87532 120.214 -8.85198 120.35C-9.68932 120.407 -10.526 120.48 -11.362 120.567C-13.6287 120.801 -15.885 121.139 -18.131 121.581C-19.1123 121.774 -20.09 121.987 -21.064 122.221C-23.857 122.889 -26.6088 123.719 -29.305 124.708C-30.5843 125.175 -31.853 125.679 -33.111 126.221C-37.653 128.175 -41.9869 130.58 -46.047 133.402C-49.7061 135.945 -53.1307 138.809 -56.28 141.961C-59.4317 145.111 -62.2961 148.535 -64.839 152.194C-67.6606 156.254 -70.0664 160.588 -72.02 165.13C-72.5606 166.387 -73.065 167.656 -73.533 168.936C-74.5219 171.632 -75.3523 174.384 -76.02 177.177C-76.254 178.15 -76.4673 179.128 -76.66 180.11C-77.102 182.352 -77.4393 184.608 -77.672 186.878C-77.7607 187.713 -77.8333 188.55 -77.8899 189.388C-78.0233 191.363 -78.082 193.34 -78.066 195.32C-78.058 196.065 -78.0393 196.81 -78.0099 197.555C-77.9393 199.34 -77.8033 201.123 -77.602 202.904C-77.5266 203.584 -77.4413 204.262 -77.3459 204.939C-77.1166 206.58 -76.8319 208.214 -76.4919 209.839C-76.3626 210.465 -76.2233 211.09 -76.074 211.713C-75.7173 213.236 -75.3103 214.748 -74.853 216.249C-74.677 216.83 -74.4923 217.41 -74.2989 217.988C-73.8323 219.406 -73.32 220.812 -72.762 222.205C-72.547 222.748 -72.3219 223.289 -72.0929 223.828C-71.5256 225.153 -70.9186 226.464 -70.272 227.763C-70.0193 228.269 -69.76 228.774 -69.494 229.277C-68.8406 230.519 -68.1479 231.745 -67.4159 232.954C-67.1313 233.429 -66.8393 233.901 -66.54 234.37C-65.8066 235.532 -65.0343 236.678 -64.223 237.808C-63.9063 238.251 -63.583 238.692 -63.253 239.131C-62.439 240.219 -61.5896 241.289 -60.7049 242.34C-60.3583 242.754 -60.0053 243.165 -59.646 243.573C-58.7567 244.589 -57.834 245.585 -56.878 246.561C-56.678 246.761 -56.4779 246.966 -56.2779 247.168C-56.0966 247.349 -55.9147 247.529 -55.732 247.706C-54.7573 248.663 -53.7626 249.587 -52.748 250.478C-52.3406 250.836 -51.93 251.189 -51.516 251.537C-50.4667 252.421 -49.4 253.271 -48.316 254.088C-47.8793 254.421 -47.439 254.745 -46.995 255.059C-45.8677 255.869 -44.723 256.643 -43.561 257.381C-43.0943 257.679 -42.6223 257.971 -42.145 258.258C-40.9363 258.991 -39.712 259.685 -38.472 260.339C-37.9693 260.606 -37.4646 260.865 -36.9579 261.118C-35.6619 261.768 -34.3516 262.376 -33.027 262.943C-32.4896 263.174 -31.9503 263.398 -31.409 263.615C-30.0177 264.174 -28.6129 264.689 -27.1949 265.158C-26.6189 265.351 -26.0389 265.535 -25.4579 265.712C-23.9593 266.169 -22.4493 266.578 -20.928 266.938C-20.3053 267.087 -19.6813 267.227 -19.056 267.358C-17.432 267.7 -15.7986 267.987 -14.1559 268.218C-13.4793 268.315 -12.8013 268.402 -12.1219 268.477C-10.3453 268.681 -8.56494 268.819 -6.78094 268.891C-6.03794 268.923 -5.29194 268.943 -4.54894 268.951C-2.57294 268.976 -0.598636 268.921 1.37403 268.786C2.20936 268.731 3.0427 268.66 3.87403 268.573C6.13603 268.346 8.38702 268.012 10.627 267.573C11.6037 267.382 12.5787 267.17 13.552 266.939C16.3327 266.282 19.0727 265.464 21.7581 264.488C23.0307 264.026 24.2924 263.528 25.543 262.995C30.0155 261.089 34.2881 258.744 38.298 255.995C42.1067 253.388 45.6656 250.434 48.929 247.171C52.1963 243.907 55.1543 240.348 57.765 236.539C60.5133 232.529 62.858 228.256 64.765 223.784C65.2983 222.535 65.7961 221.273 66.2581 219.999C67.2339 217.314 68.0522 214.574 68.709 211.793C68.9404 210.822 69.1517 209.846 69.343 208.867C69.7797 206.63 70.113 204.379 70.343 202.115C70.4297 201.282 70.5007 200.449 70.556 199.615C70.6847 197.642 70.7374 195.667 70.7141 193.69ZM44.914 227.531C42.828 230.597 40.4575 233.46 37.8341 236.081C35.213 238.704 32.3507 241.075 29.285 243.161C27.4461 244.411 25.5369 245.555 23.567 246.587C20.4278 248.233 17.1448 249.59 13.759 250.639C12.707 250.966 11.6474 251.261 10.58 251.526C8.25428 252.108 5.89478 252.545 3.51502 252.836C2.66502 252.94 1.81435 253.026 0.96302 253.094C-1.00831 253.249 -2.98299 253.305 -4.96099 253.262C-5.69432 253.247 -6.42761 253.217 -7.16094 253.173C-8.90428 253.071 -10.6426 252.89 -12.376 252.631C-13.0326 252.534 -13.6873 252.425 -14.34 252.304C-15.9153 252.015 -17.4796 251.66 -19.033 251.241C-19.629 251.082 -20.2223 250.911 -20.813 250.73C-22.253 250.293 -23.6783 249.8 -25.089 249.249C-25.633 249.035 -26.175 248.813 -26.715 248.583C-28.0376 248.019 -29.342 247.405 -30.628 246.74C-31.1286 246.482 -31.6263 246.215 -32.121 245.94C-33.337 245.267 -34.534 244.546 -35.712 243.777C-36.1726 243.478 -36.6296 243.171 -37.0829 242.857C-38.2036 242.08 -39.3037 241.26 -40.383 240.396C-40.805 240.058 -41.223 239.712 -41.637 239.359C-42.6656 238.487 -43.6706 237.573 -44.652 236.618C-44.835 236.44 -45.016 236.261 -45.198 236.08C-45.398 235.88 -45.598 235.68 -45.798 235.472C-46.7526 234.491 -47.6656 233.485 -48.537 232.454C-48.8883 232.04 -49.2333 231.621 -49.572 231.197C-50.4346 230.12 -51.2533 229.02 -52.0279 227.897C-52.3439 227.444 -52.6503 226.986 -52.947 226.525C-53.7156 225.348 -54.435 224.148 -55.105 222.925C-55.382 222.431 -55.647 221.933 -55.905 221.432C-56.5676 220.145 -57.1799 218.838 -57.7419 217.512C-57.9726 216.973 -58.1933 216.43 -58.404 215.884C-58.9533 214.474 -59.4456 213.047 -59.881 211.604C-60.061 211.013 -60.2309 210.417 -60.3899 209.821C-60.8073 208.267 -61.1596 206.7 -61.447 205.121C-61.5656 204.465 -61.673 203.809 -61.769 203.152C-62.025 201.419 -62.2027 199.677 -62.302 197.928C-62.344 197.195 -62.3716 196.458 -62.3849 195.719C-62.4252 193.738 -62.3652 191.757 -62.2049 189.782C-62.1383 188.929 -62.0496 188.077 -61.939 187.226C-61.6421 184.838 -61.1975 182.47 -60.608 180.137C-60.338 179.066 -60.0379 178.001 -59.7079 176.942C-58.6384 173.526 -57.2553 170.216 -55.576 167.054C-54.5044 165.034 -53.3147 163.078 -52.013 161.198C-49.9941 158.282 -47.7165 155.555 -45.2079 153.048C-42.7012 150.539 -39.9736 148.262 -37.058 146.243C-35.1777 144.941 -33.2223 143.752 -31.202 142.68C-28.0404 141.001 -24.7303 139.617 -21.314 138.548C-20.256 138.215 -19.1893 137.915 -18.1139 137.648C-15.781 137.058 -13.4139 136.614 -11.026 136.317C-10.174 136.21 -9.32196 136.121 -8.46996 136.051C-6.49529 135.89 -4.51374 135.83 -2.53295 135.87C-1.79962 135.882 -1.0633 135.91 -0.323967 135.953C1.4227 136.053 3.16403 136.231 4.90003 136.486C5.55803 136.581 6.21436 136.689 6.86903 136.808C8.44503 137.096 10.0117 137.448 11.569 137.865C12.169 138.023 12.7611 138.194 13.3521 138.373C14.7934 138.807 16.22 139.299 17.632 139.85C18.178 140.061 18.7207 140.282 19.26 140.512C20.5834 141.073 21.8901 141.686 23.1801 142.349C23.6801 142.607 24.18 142.872 24.673 143.149C25.8924 143.819 27.0924 144.539 28.273 145.308C28.735 145.605 29.193 145.911 29.647 146.227C30.7677 147 31.8677 147.819 32.947 148.683C33.3704 149.021 33.7897 149.366 34.205 149.718C35.235 150.591 36.241 151.504 37.223 152.457C37.423 152.657 37.6311 152.857 37.8311 153.057C38.0131 153.239 38.191 153.42 38.369 153.603C39.325 154.583 40.2387 155.588 41.1101 156.617C41.4647 157.032 41.8104 157.451 42.147 157.872C43.0137 158.947 43.834 160.047 44.608 161.172C44.9227 161.625 45.2294 162.082 45.528 162.543C46.298 163.719 47.0194 164.916 47.692 166.134C47.9667 166.628 48.2333 167.126 48.492 167.627C49.1587 168.913 49.773 170.217 50.335 171.54C50.5657 172.079 50.7877 172.621 51.001 173.166C51.5504 174.575 52.0444 175.999 52.483 177.44C52.6624 178.031 52.8327 178.625 52.994 179.221C53.414 180.773 53.768 182.337 54.056 183.914C54.1767 184.567 54.2857 185.221 54.3831 185.878C54.6411 187.611 54.8217 189.35 54.925 191.093C54.9684 191.826 54.998 192.56 55.014 193.293C55.056 195.268 55 197.242 54.846 199.217C54.7793 200.068 54.6933 200.918 54.588 201.769C54.2975 204.149 53.86 206.508 53.278 208.834C53.0113 209.901 52.7157 210.96 52.3911 212.013C51.3416 215.399 49.9853 218.682 48.3391 221.821C47.309 223.788 46.1671 225.694 44.919 227.531H44.914Z" fill="#FFF5C2"/>
    <path d="M30.4 194.566C30.401 196.367 30.2596 198.165 29.9771 199.944C29.8244 200.917 29.6301 201.875 29.3941 202.818C28.4995 206.41 27.0229 209.831 25.023 212.945C22.3645 217.087 18.8446 220.607 14.703 223.265C11.5885 225.265 8.16765 226.741 4.57606 227.636C3.63339 227.871 2.67568 228.065 1.70301 228.219C-0.0760339 228.502 -1.87461 228.643 -3.67596 228.642C-3.94096 228.642 -4.20397 228.642 -4.46697 228.632C-5.20031 228.617 -5.92461 228.577 -6.63995 228.514C-8.31041 228.37 -9.96792 228.103 -11.5989 227.714C-12.2083 227.569 -12.811 227.407 -13.407 227.23C-14.8402 226.805 -16.2433 226.284 -17.607 225.671C-18.131 225.437 -18.648 225.19 -19.158 224.93C-20.4063 224.292 -21.614 223.577 -22.774 222.79C-23.2293 222.483 -23.6753 222.166 -24.1119 221.837C-25.2016 221.019 -26.2414 220.136 -27.2259 219.194C-27.6166 218.822 -27.998 218.44 -28.37 218.048C-29.3091 217.061 -30.1889 216.018 -31.0049 214.927C-31.3316 214.487 -31.6483 214.04 -31.9549 213.585C-32.74 212.422 -33.4514 211.212 -34.085 209.96C-34.345 209.449 -34.5916 208.932 -34.8249 208.407C-35.4344 207.041 -35.9512 205.635 -36.3719 204.199C-36.5493 203.599 -36.7093 202.995 -36.852 202.387C-37.2366 200.751 -37.4986 199.09 -37.636 197.415C-37.6966 196.695 -37.734 195.969 -37.748 195.236C-37.748 195.012 -37.7549 194.79 -37.7549 194.565C-37.7562 192.714 -37.6071 190.867 -37.309 189.04C-37.1496 188.061 -36.9496 187.096 -36.709 186.147C-35.7763 182.48 -34.2367 178.996 -32.154 175.837C-29.5975 171.961 -26.2804 168.645 -22.404 166.09C-19.2454 164.007 -15.7607 162.468 -12.094 161.535C-11.1447 161.294 -10.1803 161.094 -9.20098 160.935C-7.37444 160.637 -5.52666 160.488 -3.67596 160.489C-3.45096 160.489 -3.22794 160.489 -3.00494 160.496C-2.2716 160.511 -1.54531 160.548 -0.825981 160.608C0.848534 160.745 2.51052 161.007 4.14606 161.392C4.7574 161.534 5.36135 161.694 5.95802 161.872C7.39379 162.293 8.79964 162.81 10.166 163.419C10.6914 163.652 11.2091 163.898 11.7191 164.159C12.9714 164.792 14.1827 165.504 15.346 166.289C15.8 166.596 16.247 166.912 16.687 167.239C17.7784 168.055 18.8205 168.935 19.8081 169.874C20.2001 170.245 20.582 170.627 20.954 171.018C21.8962 172.003 22.7788 173.042 23.5971 174.132C23.9251 174.569 24.2427 175.015 24.5501 175.47C25.3378 176.631 26.0528 177.84 26.691 179.09C26.9504 179.599 27.1973 180.116 27.432 180.641C28.0444 182.005 28.5649 183.408 28.9901 184.841C29.1687 185.437 29.3301 186.04 29.4741 186.649C29.8626 188.28 30.13 189.937 30.2741 191.607C30.3374 192.326 30.377 193.05 30.393 193.781C30.398 194.038 30.4 194.301 30.4 194.566Z" fill="#FFAE42"/>
    <path d="M340.153 61.022L375.895 81.657V40.386L340.153 61.022Z" fill="#FFAE42"/>
    <g opacity="0.68">
        <g opacity="0.68">
            <g opacity="0.68">
                <path opacity="0.68" d="M197.545 82.424C197.401 82.4239 197.262 82.3667 197.16 82.265C197.058 82.1625 197 82.0237 197 81.879C197.001 81.7347 197.058 81.5965 197.16 81.494C197.185 81.4687 197.213 81.4462 197.243 81.427C197.272 81.407 197.304 81.3903 197.337 81.377C197.369 81.3627 197.403 81.352 197.437 81.345C197.507 81.33 197.579 81.33 197.649 81.345C197.683 81.352 197.717 81.3628 197.749 81.377C197.782 81.3899 197.814 81.4067 197.843 81.427C197.873 81.446 197.901 81.4685 197.926 81.494C198.028 81.5964 198.085 81.7347 198.086 81.879C198.086 81.915 198.083 81.9509 198.075 81.986C198.068 82.0203 198.057 82.0538 198.043 82.086C198.03 82.119 198.014 82.1505 197.994 82.18C197.974 82.2098 197.951 82.2376 197.926 82.263C197.825 82.3645 197.688 82.4223 197.545 82.424V82.424Z" fill="white"/>
            </g>
            <g opacity="0.68">
                <path opacity="0.68" d="M278.886 81.879C278.886 81.8075 278.9 81.7367 278.927 81.6706C278.955 81.6045 278.995 81.5445 279.046 81.494C279.096 81.4435 279.156 81.4034 279.222 81.3761C279.289 81.3489 279.359 81.3349 279.431 81.335V81.335C279.502 81.3349 279.573 81.3489 279.639 81.3761C279.706 81.4034 279.766 81.4435 279.816 81.494C279.867 81.5445 279.907 81.6045 279.934 81.6706C279.962 81.7367 279.976 81.8075 279.976 81.879C279.976 82.0236 279.919 82.1622 279.816 82.2644C279.714 82.3666 279.576 82.424 279.431 82.424C279.286 82.424 279.148 82.3666 279.046 82.2644C278.943 82.1622 278.886 82.0236 278.886 81.879ZM270.698 81.879C270.698 81.8075 270.712 81.7367 270.74 81.6706C270.767 81.6045 270.807 81.5445 270.858 81.494C270.908 81.4435 270.968 81.4034 271.034 81.3761C271.101 81.3489 271.171 81.3349 271.243 81.335V81.335C271.315 81.3349 271.385 81.3489 271.451 81.3761C271.518 81.4034 271.578 81.4435 271.628 81.494C271.679 81.5445 271.719 81.6045 271.746 81.6706C271.774 81.7367 271.788 81.8075 271.788 81.879V81.879C271.788 82.0236 271.731 82.1622 271.628 82.2644C271.526 82.3666 271.388 82.424 271.243 82.424V82.424C271.098 82.424 270.96 82.3666 270.858 82.2644C270.755 82.1622 270.698 82.0236 270.698 81.879ZM262.509 81.879C262.509 81.8075 262.523 81.7367 262.55 81.6706C262.578 81.6045 262.618 81.5445 262.669 81.494C262.719 81.4435 262.779 81.4034 262.846 81.3761C262.912 81.3489 262.982 81.3349 263.054 81.335V81.335C263.125 81.3349 263.196 81.3489 263.262 81.3761C263.329 81.4034 263.389 81.4435 263.439 81.494C263.49 81.5445 263.53 81.6045 263.557 81.6706C263.585 81.7367 263.599 81.8075 263.599 81.879C263.599 82.0236 263.542 82.1622 263.439 82.2644C263.337 82.3666 263.198 82.424 263.054 82.424C262.909 82.424 262.771 82.3666 262.669 82.2644C262.566 82.1622 262.509 82.0236 262.509 81.879ZM254.321 81.879C254.321 81.8075 254.335 81.7367 254.362 81.6706C254.39 81.6045 254.43 81.5445 254.481 81.494C254.531 81.4435 254.591 81.4034 254.657 81.3761C254.724 81.3489 254.794 81.3349 254.866 81.335V81.335C254.937 81.3349 255.008 81.3489 255.074 81.3761C255.141 81.4034 255.201 81.4435 255.251 81.494C255.302 81.5445 255.342 81.6045 255.369 81.6706C255.397 81.7367 255.411 81.8075 255.411 81.879V81.879C255.411 82.0236 255.354 82.1622 255.251 82.2644C255.149 82.3666 255.011 82.424 254.866 82.424C254.794 82.424 254.724 82.4099 254.657 82.3825C254.591 82.3551 254.531 82.315 254.481 82.2644C254.43 82.2138 254.39 82.1537 254.362 82.0876C254.335 82.0214 254.321 81.9506 254.321 81.879V81.879ZM246.132 81.879C246.132 81.8075 246.146 81.7367 246.173 81.6706C246.201 81.6045 246.241 81.5445 246.292 81.494C246.342 81.4435 246.402 81.4034 246.469 81.3761C246.535 81.3489 246.605 81.3349 246.677 81.335V81.335C246.748 81.3349 246.819 81.3489 246.885 81.3761C246.951 81.4034 247.011 81.4435 247.062 81.494C247.112 81.5446 247.153 81.6046 247.18 81.6707C247.207 81.7367 247.221 81.8075 247.221 81.879V81.879C247.221 81.9505 247.207 82.0214 247.18 82.0875C247.153 82.1536 247.113 82.2137 247.062 82.2643C247.011 82.3149 246.951 82.3551 246.885 82.3825C246.819 82.4099 246.749 82.424 246.677 82.424V82.424C246.605 82.424 246.535 82.4099 246.468 82.3825C246.402 82.3551 246.342 82.315 246.292 82.2644C246.241 82.2138 246.201 82.1537 246.173 82.0876C246.146 82.0214 246.132 81.9506 246.132 81.879V81.879ZM237.944 81.879C237.944 81.8075 237.958 81.7367 237.985 81.6706C238.013 81.6045 238.053 81.5445 238.104 81.494C238.154 81.4435 238.214 81.4034 238.281 81.3761C238.347 81.3489 238.417 81.3349 238.489 81.335V81.335C238.56 81.3349 238.631 81.3489 238.697 81.3761C238.763 81.4034 238.823 81.4435 238.874 81.494C238.925 81.5446 238.965 81.6046 238.992 81.6707C239.019 81.7367 239.033 81.8075 239.033 81.879V81.879C239.033 81.9505 239.019 82.0214 238.992 82.0875C238.965 82.1536 238.925 82.2137 238.874 82.2643C238.823 82.3149 238.763 82.3551 238.697 82.3825C238.631 82.4099 238.56 82.424 238.489 82.424V82.424C238.417 82.424 238.347 82.4099 238.28 82.3825C238.214 82.3551 238.154 82.315 238.104 82.2644C238.053 82.2138 238.013 82.1537 237.985 82.0876C237.958 82.0214 237.944 81.9506 237.944 81.879V81.879ZM229.755 81.879C229.755 81.8075 229.769 81.7367 229.796 81.6707C229.823 81.6046 229.863 81.5446 229.914 81.494C229.965 81.4435 230.025 81.4034 230.091 81.3761C230.157 81.3489 230.227 81.3349 230.299 81.335V81.335C230.37 81.3349 230.441 81.3489 230.507 81.3761C230.574 81.4034 230.634 81.4435 230.684 81.494C230.735 81.5445 230.775 81.6045 230.802 81.6706C230.83 81.7367 230.844 81.8075 230.844 81.879V81.879C230.844 82.0236 230.787 82.1622 230.684 82.2644C230.582 82.3666 230.443 82.424 230.299 82.424C230.227 82.424 230.157 82.4099 230.091 82.3825C230.025 82.3551 229.964 82.3149 229.914 82.2643C229.863 82.2137 229.823 82.1536 229.796 82.0875C229.769 82.0214 229.755 81.9505 229.755 81.879V81.879ZM221.567 81.879C221.567 81.8075 221.581 81.7367 221.608 81.6707C221.635 81.6046 221.675 81.5446 221.726 81.494C221.777 81.4435 221.837 81.4034 221.903 81.3761C221.969 81.3489 222.039 81.3349 222.111 81.335V81.335C222.182 81.3349 222.253 81.3489 222.319 81.3761C222.386 81.4034 222.446 81.4435 222.496 81.494C222.547 81.5445 222.587 81.6045 222.615 81.6706C222.642 81.7367 222.656 81.8075 222.656 81.879C222.656 82.0236 222.599 82.1622 222.496 82.2644C222.394 82.3666 222.256 82.424 222.111 82.424C222.039 82.4243 221.968 82.4104 221.902 82.3831C221.836 82.3558 221.775 82.3157 221.725 82.265C221.674 82.2144 221.634 82.1542 221.606 82.088C221.579 82.0217 221.565 81.9507 221.565 81.879H221.567ZM213.377 81.879C213.377 81.8075 213.391 81.7367 213.418 81.6706C213.446 81.6045 213.486 81.5445 213.537 81.494C213.587 81.4435 213.647 81.4034 213.714 81.3761C213.78 81.3489 213.85 81.3349 213.922 81.335V81.335C213.994 81.3349 214.064 81.3489 214.13 81.3761C214.197 81.4034 214.257 81.4435 214.307 81.494C214.358 81.5445 214.398 81.6045 214.425 81.6706C214.453 81.7367 214.467 81.8075 214.467 81.879V81.879C214.467 82.0236 214.41 82.1622 214.307 82.2644C214.205 82.3666 214.067 82.424 213.922 82.424C213.777 82.424 213.639 82.3666 213.537 82.2644C213.434 82.1622 213.377 82.0236 213.377 81.879ZM205.189 81.879C205.189 81.8075 205.203 81.7367 205.23 81.6706C205.258 81.6045 205.298 81.5445 205.349 81.494C205.399 81.4435 205.459 81.4034 205.526 81.3761C205.592 81.3489 205.662 81.3349 205.734 81.335V81.335C205.805 81.3349 205.876 81.3489 205.942 81.3761C206.009 81.4034 206.069 81.4435 206.119 81.494C206.17 81.5445 206.21 81.6045 206.237 81.6706C206.265 81.7367 206.279 81.8075 206.279 81.879C206.279 82.0236 206.222 82.1622 206.119 82.2644C206.017 82.3666 205.878 82.424 205.734 82.424V82.424C205.589 82.424 205.451 82.3666 205.349 82.2644C205.246 82.1622 205.189 82.0236 205.189 81.879V81.879Z" fill="white"/>
            </g>
            <g opacity="0.68">
                <path opacity="0.68" d="M287.62 82.424C287.476 82.4239 287.337 82.3667 287.235 82.265C287.21 82.2396 287.187 82.2119 287.167 82.182C287.147 82.1521 287.13 82.1207 287.116 82.088C287.103 82.0556 287.093 82.0222 287.086 81.988C287.078 81.9529 287.075 81.917 287.075 81.881C287.075 81.7366 287.133 81.5981 287.235 81.496C287.26 81.4705 287.288 81.448 287.318 81.429C287.347 81.4086 287.379 81.3919 287.412 81.379C287.444 81.365 287.478 81.3543 287.512 81.347C287.582 81.3318 287.654 81.3318 287.724 81.347C287.758 81.3544 287.792 81.3651 287.824 81.379C287.857 81.3925 287.888 81.4092 287.918 81.429C287.948 81.4485 287.976 81.4709 288.001 81.496C288.102 81.5989 288.159 81.7369 288.16 81.881C288.16 82.0255 288.102 82.1641 288.001 82.267C287.899 82.3668 287.763 82.4231 287.62 82.424V82.424Z" fill="white"/>
            </g>
        </g>
        <g opacity="0.68">
            <g opacity="0.68">
                <path opacity="0.68" d="M197.545 72.985C197.509 72.9853 197.474 72.9816 197.439 72.974C197.405 72.967 197.371 72.9563 197.339 72.942C197.306 72.9287 197.275 72.9123 197.245 72.893C197.215 72.8731 197.187 72.8503 197.162 72.825C197.136 72.7996 197.113 72.7718 197.093 72.742C197.074 72.7121 197.058 72.6807 197.044 72.648C197.031 72.6156 197.02 72.5822 197.013 72.548C197.006 72.5131 197.002 72.4776 197.002 72.442C197.002 72.4064 197.006 72.3709 197.013 72.336C197.02 72.3018 197.031 72.2684 197.044 72.236C197.058 72.2035 197.074 72.1721 197.093 72.142C197.114 72.1126 197.137 72.0848 197.162 72.059C197.187 72.0343 197.215 72.0122 197.245 71.993C197.274 71.9727 197.306 71.9556 197.339 71.942C197.371 71.9285 197.405 71.9181 197.439 71.911C197.509 71.896 197.581 71.896 197.651 71.911C197.685 71.9182 197.719 71.9285 197.751 71.942C197.784 71.9552 197.816 71.9723 197.845 71.993C197.875 72.012 197.903 72.0341 197.928 72.059C197.953 72.0846 197.976 72.1124 197.996 72.142C198.016 72.1718 198.033 72.2032 198.047 72.236C198.06 72.2684 198.07 72.3018 198.077 72.336C198.085 72.3708 198.088 72.4064 198.088 72.442C198.087 72.5863 198.03 72.7245 197.928 72.827C197.902 72.8521 197.875 72.8749 197.845 72.895C197.815 72.9147 197.784 72.9311 197.751 72.944C197.719 72.9583 197.685 72.969 197.651 72.976C197.616 72.983 197.581 72.986 197.545 72.985V72.985Z" fill="white"/>
            </g>
            <g opacity="0.68">
                <path opacity="0.68" d="M278.886 72.44C278.886 72.2955 278.943 72.1568 279.046 72.0546C279.148 71.9524 279.286 71.895 279.431 71.895C279.576 71.895 279.714 71.9524 279.816 72.0546C279.919 72.1568 279.976 72.2955 279.976 72.44C279.976 72.5845 279.919 72.7232 279.816 72.8254C279.714 72.9276 279.576 72.985 279.431 72.985V72.985C279.286 72.985 279.148 72.9276 279.046 72.8254C278.943 72.7232 278.886 72.5845 278.886 72.44ZM270.698 72.44C270.698 72.2955 270.755 72.1568 270.858 72.0546C270.96 71.9524 271.098 71.895 271.243 71.895C271.388 71.895 271.526 71.9524 271.628 72.0546C271.731 72.1568 271.788 72.2955 271.788 72.44C271.788 72.5845 271.731 72.7232 271.628 72.8254C271.526 72.9276 271.388 72.985 271.243 72.985V72.985C271.098 72.985 270.96 72.9276 270.858 72.8254C270.755 72.7232 270.698 72.5845 270.698 72.44ZM262.509 72.44C262.509 72.2955 262.566 72.1568 262.669 72.0546C262.771 71.9524 262.909 71.895 263.054 71.895C263.198 71.895 263.337 71.9524 263.439 72.0546C263.542 72.1568 263.599 72.2955 263.599 72.44C263.599 72.5845 263.542 72.7232 263.439 72.8254C263.337 72.9276 263.198 72.985 263.054 72.985V72.985C262.909 72.985 262.771 72.9276 262.669 72.8254C262.566 72.7232 262.509 72.5845 262.509 72.44ZM254.321 72.44C254.321 72.2955 254.378 72.1568 254.481 72.0546C254.583 71.9524 254.721 71.895 254.866 71.895V71.895C255.011 71.895 255.149 71.9524 255.251 72.0546C255.354 72.1568 255.411 72.2955 255.411 72.44C255.411 72.5845 255.354 72.7232 255.251 72.8254C255.149 72.9276 255.011 72.985 254.866 72.985V72.985C254.794 72.985 254.724 72.9709 254.657 72.9435C254.591 72.9161 254.531 72.876 254.481 72.8254C254.43 72.7748 254.39 72.7147 254.362 72.6486C254.335 72.5825 254.321 72.5116 254.321 72.44V72.44ZM246.132 72.44C246.132 72.2955 246.189 72.1568 246.292 72.0546C246.394 71.9524 246.532 71.895 246.677 71.895C246.749 71.895 246.819 71.9091 246.885 71.9365C246.951 71.9639 247.011 72.0041 247.062 72.0547C247.113 72.1053 247.153 72.1654 247.18 72.2315C247.207 72.2976 247.221 72.3685 247.221 72.44C247.221 72.5115 247.207 72.5824 247.18 72.6485C247.153 72.7146 247.113 72.7747 247.062 72.8253C247.011 72.8759 246.951 72.9161 246.885 72.9435C246.819 72.9709 246.749 72.985 246.677 72.985V72.985C246.605 72.985 246.535 72.9709 246.468 72.9435C246.402 72.9161 246.342 72.876 246.292 72.8254C246.241 72.7748 246.201 72.7147 246.173 72.6486C246.146 72.5825 246.132 72.5116 246.132 72.44V72.44ZM237.944 72.44C237.944 72.2955 238.001 72.1568 238.104 72.0546C238.206 71.9524 238.344 71.895 238.489 71.895C238.56 71.895 238.631 71.9091 238.697 71.9365C238.763 71.9639 238.823 72.0041 238.874 72.0547C238.925 72.1053 238.965 72.1654 238.992 72.2315C239.019 72.2976 239.033 72.3685 239.033 72.44V72.44C239.033 72.5115 239.019 72.5824 238.992 72.6485C238.965 72.7146 238.925 72.7747 238.874 72.8253C238.823 72.8759 238.763 72.9161 238.697 72.9435C238.631 72.9709 238.56 72.985 238.489 72.985V72.985C238.417 72.985 238.347 72.9709 238.28 72.9435C238.214 72.9161 238.154 72.876 238.104 72.8254C238.053 72.7748 238.013 72.7147 237.985 72.6486C237.958 72.5825 237.944 72.5116 237.944 72.44V72.44ZM229.755 72.44C229.755 72.3685 229.769 72.2976 229.796 72.2315C229.823 72.1654 229.863 72.1053 229.914 72.0547C229.964 72.0041 230.025 71.9639 230.091 71.9365C230.157 71.9091 230.227 71.895 230.299 71.895V71.895C230.443 71.895 230.582 71.9524 230.684 72.0546C230.787 72.1568 230.844 72.2955 230.844 72.44C230.844 72.5845 230.787 72.7232 230.684 72.8254C230.582 72.9276 230.443 72.985 230.299 72.985V72.985C230.227 72.985 230.157 72.9709 230.091 72.9435C230.025 72.9161 229.964 72.8759 229.914 72.8253C229.863 72.7747 229.823 72.7146 229.796 72.6485C229.769 72.5824 229.755 72.5115 229.755 72.44V72.44ZM221.567 72.44C221.567 72.3685 221.581 72.2976 221.608 72.2315C221.635 72.1654 221.675 72.1053 221.726 72.0547C221.776 72.0041 221.837 71.9639 221.903 71.9365C221.969 71.9091 222.039 71.895 222.111 71.895V71.895C222.256 71.895 222.394 71.9524 222.496 72.0546C222.599 72.1568 222.656 72.2955 222.656 72.44C222.656 72.5845 222.599 72.7232 222.496 72.8254C222.394 72.9276 222.256 72.985 222.111 72.985V72.985C222.039 72.9853 221.968 72.9714 221.902 72.9441C221.836 72.9168 221.775 72.8767 221.725 72.826C221.674 72.7754 221.634 72.7152 221.606 72.649C221.579 72.5827 221.565 72.5117 221.565 72.44H221.567ZM213.377 72.44C213.377 72.2955 213.434 72.1568 213.537 72.0546C213.639 71.9524 213.777 71.895 213.922 71.895C214.067 71.895 214.205 71.9524 214.307 72.0546C214.41 72.1568 214.467 72.2955 214.467 72.44C214.467 72.5845 214.41 72.7232 214.307 72.8254C214.205 72.9276 214.067 72.985 213.922 72.985V72.985C213.777 72.985 213.639 72.9276 213.537 72.8254C213.434 72.7232 213.377 72.5845 213.377 72.44ZM205.189 72.44C205.189 72.2955 205.246 72.1568 205.349 72.0546C205.451 71.9524 205.589 71.895 205.734 71.895V71.895C205.878 71.895 206.017 71.9524 206.119 72.0546C206.222 72.1568 206.279 72.2955 206.279 72.44V72.44C206.279 72.5845 206.222 72.7232 206.119 72.8254C206.017 72.9276 205.878 72.985 205.734 72.985V72.985C205.589 72.985 205.451 72.9276 205.349 72.8254C205.246 72.7232 205.189 72.5845 205.189 72.44V72.44Z" fill="white"/>
            </g>
            <g opacity="0.68">
                <path opacity="0.68" d="M287.62 72.985C287.584 72.9854 287.549 72.9817 287.514 72.974C287.48 72.9667 287.446 72.956 287.414 72.942C287.381 72.9291 287.35 72.9127 287.32 72.893C287.29 72.8734 287.262 72.8506 287.237 72.825C287.135 72.7228 287.078 72.5844 287.077 72.44C287.077 72.4044 287.08 72.3688 287.088 72.334C287.095 72.2998 287.105 72.2664 287.118 72.234C287.133 72.2014 287.15 72.17 287.169 72.14C287.189 72.1101 287.212 72.0823 287.237 72.057C287.262 72.0321 287.29 72.0099 287.32 71.991C287.349 71.9703 287.381 71.9532 287.414 71.94C287.446 71.9268 287.48 71.9164 287.514 71.909C287.602 71.8916 287.693 71.896 287.778 71.9218C287.864 71.9476 287.942 71.994 288.006 72.057C288.03 72.0826 288.053 72.1104 288.072 72.14C288.092 72.1696 288.109 72.2011 288.123 72.234C288.136 72.2663 288.147 72.2998 288.154 72.334C288.161 72.3689 288.165 72.4044 288.165 72.44C288.164 72.5841 288.107 72.7221 288.006 72.825C287.903 72.9267 287.765 72.9841 287.62 72.985V72.985Z" fill="white"/>
            </g>
        </g>
        <g opacity="0.68">
            <g opacity="0.68">
                <path opacity="0.68" d="M197.545 63.545C197.401 63.5449 197.262 63.4877 197.16 63.386C197.135 63.3609 197.112 63.333 197.093 63.303C197.073 63.2736 197.056 63.2421 197.042 63.209C197.029 63.1767 197.018 63.1432 197.011 63.109C197.004 63.0741 197 63.0386 197 63.003C197 62.9674 197.004 62.9319 197.011 62.897C197.018 62.8628 197.029 62.8294 197.042 62.797C197.056 62.7644 197.072 62.7329 197.091 62.703C197.112 62.6736 197.135 62.6458 197.16 62.62C197.185 62.5947 197.213 62.5719 197.243 62.552C197.273 62.5327 197.304 62.5163 197.337 62.503C197.369 62.4888 197.403 62.478 197.437 62.471C197.507 62.458 197.579 62.458 197.649 62.471C197.683 62.478 197.717 62.4888 197.749 62.503C197.782 62.5159 197.813 62.5323 197.843 62.552C197.873 62.5716 197.901 62.5944 197.926 62.62C198.028 62.7225 198.085 62.8607 198.086 63.005C198.086 63.0406 198.083 63.0762 198.075 63.111C198.068 63.1455 198.057 63.179 198.043 63.211C198.03 63.244 198.014 63.2755 197.994 63.305C197.974 63.3348 197.951 63.3626 197.926 63.388C197.824 63.488 197.688 63.5443 197.545 63.545V63.545Z" fill="white"/>
            </g>
            <g opacity="0.68">
                <path opacity="0.68" d="M278.886 63C278.886 62.8555 278.943 62.7168 279.046 62.6146C279.148 62.5124 279.286 62.455 279.431 62.455C279.576 62.455 279.714 62.5124 279.816 62.6146C279.919 62.7168 279.976 62.8555 279.976 63C279.976 63.1445 279.919 63.2832 279.816 63.3854C279.714 63.4876 279.576 63.545 279.431 63.545V63.545C279.286 63.545 279.148 63.4876 279.046 63.3854C278.943 63.2832 278.886 63.1445 278.886 63ZM270.698 63C270.698 62.8555 270.755 62.7168 270.858 62.6146C270.96 62.5124 271.098 62.455 271.243 62.455C271.388 62.455 271.526 62.5124 271.628 62.6146C271.731 62.7168 271.788 62.8555 271.788 63C271.788 63.1445 271.731 63.2832 271.628 63.3854C271.526 63.4876 271.388 63.545 271.243 63.545V63.545C271.098 63.545 270.96 63.4876 270.858 63.3854C270.755 63.2832 270.698 63.1445 270.698 63ZM262.509 63C262.509 62.8555 262.566 62.7168 262.669 62.6146C262.771 62.5124 262.909 62.455 263.054 62.455C263.198 62.455 263.337 62.5124 263.439 62.6146C263.542 62.7168 263.599 62.8555 263.599 63C263.599 63.1445 263.542 63.2832 263.439 63.3854C263.337 63.4876 263.198 63.545 263.054 63.545V63.545C262.909 63.545 262.771 63.4876 262.669 63.3854C262.566 63.2832 262.509 63.1445 262.509 63ZM254.321 63C254.321 62.8555 254.378 62.7168 254.481 62.6146C254.583 62.5124 254.721 62.455 254.866 62.455V62.455C255.011 62.455 255.149 62.5124 255.251 62.6146C255.354 62.7168 255.411 62.8555 255.411 63C255.411 63.1445 255.354 63.2832 255.251 63.3854C255.149 63.4876 255.011 63.545 254.866 63.545V63.545C254.794 63.545 254.724 63.5309 254.657 63.5035C254.591 63.4761 254.531 63.436 254.481 63.3854C254.43 63.3348 254.39 63.2747 254.362 63.2086C254.335 63.1424 254.321 63.0716 254.321 63V63ZM246.132 63C246.132 62.8555 246.189 62.7168 246.292 62.6146C246.394 62.5124 246.532 62.455 246.677 62.455C246.749 62.455 246.819 62.4691 246.885 62.4965C246.951 62.5239 247.011 62.5641 247.062 62.6147C247.113 62.6653 247.153 62.7254 247.18 62.7915C247.207 62.8576 247.221 62.9285 247.221 63V63C247.221 63.0715 247.207 63.1424 247.18 63.2085C247.153 63.2746 247.113 63.3347 247.062 63.3853C247.011 63.4359 246.951 63.4761 246.885 63.5035C246.819 63.5309 246.749 63.545 246.677 63.545V63.545C246.605 63.545 246.535 63.5309 246.468 63.5035C246.402 63.4761 246.342 63.436 246.292 63.3854C246.241 63.3348 246.201 63.2747 246.173 63.2086C246.146 63.1424 246.132 63.0716 246.132 63V63ZM237.944 63C237.944 62.8555 238.001 62.7168 238.104 62.6146C238.206 62.5124 238.344 62.455 238.489 62.455C238.56 62.455 238.631 62.4691 238.697 62.4965C238.763 62.5239 238.823 62.5641 238.874 62.6147C238.925 62.6653 238.965 62.7254 238.992 62.7915C239.019 62.8576 239.033 62.9285 239.033 63V63C239.033 63.0715 239.019 63.1424 238.992 63.2085C238.965 63.2746 238.925 63.3347 238.874 63.3853C238.823 63.4359 238.763 63.4761 238.697 63.5035C238.631 63.5309 238.56 63.545 238.489 63.545C238.417 63.545 238.347 63.5309 238.28 63.5035C238.214 63.4761 238.154 63.436 238.104 63.3854C238.053 63.3348 238.013 63.2747 237.985 63.2086C237.958 63.1424 237.944 63.0716 237.944 63V63ZM229.755 63C229.755 62.9285 229.769 62.8576 229.796 62.7915C229.823 62.7254 229.863 62.6653 229.914 62.6147C229.964 62.5641 230.025 62.5239 230.091 62.4965C230.157 62.4691 230.227 62.455 230.299 62.455C230.443 62.455 230.582 62.5124 230.684 62.6146C230.787 62.7168 230.844 62.8555 230.844 63C230.844 63.1445 230.787 63.2832 230.684 63.3854C230.582 63.4876 230.443 63.545 230.299 63.545V63.545C230.227 63.545 230.157 63.5309 230.091 63.5035C230.025 63.4761 229.964 63.4359 229.914 63.3853C229.863 63.3347 229.823 63.2746 229.796 63.2085C229.769 63.1424 229.755 63.0715 229.755 63V63ZM221.567 63C221.567 62.9285 221.581 62.8576 221.608 62.7915C221.635 62.7254 221.675 62.6653 221.726 62.6147C221.776 62.5641 221.837 62.5239 221.903 62.4965C221.969 62.4691 222.039 62.455 222.111 62.455C222.256 62.455 222.394 62.5124 222.496 62.6146C222.599 62.7168 222.656 62.8555 222.656 63C222.656 63.1445 222.599 63.2832 222.496 63.3854C222.394 63.4876 222.256 63.545 222.111 63.545V63.545C222.039 63.5453 221.968 63.5314 221.902 63.5041C221.836 63.4768 221.775 63.4367 221.725 63.386C221.674 63.3354 221.634 63.2752 221.606 63.209C221.579 63.1427 221.565 63.0717 221.565 63H221.567ZM213.377 63C213.377 62.8555 213.434 62.7168 213.537 62.6146C213.639 62.5124 213.777 62.455 213.922 62.455C214.067 62.455 214.205 62.5124 214.307 62.6146C214.41 62.7168 214.467 62.8555 214.467 63C214.467 63.1445 214.41 63.2832 214.307 63.3854C214.205 63.4876 214.067 63.545 213.922 63.545V63.545C213.777 63.545 213.639 63.4876 213.537 63.3854C213.434 63.2832 213.377 63.1445 213.377 63ZM205.189 63C205.189 62.8555 205.246 62.7168 205.349 62.6146C205.451 62.5124 205.589 62.455 205.734 62.455V62.455C205.878 62.455 206.017 62.5124 206.119 62.6146C206.222 62.7168 206.279 62.8555 206.279 63V63C206.279 63.1445 206.222 63.2832 206.119 63.3854C206.017 63.4876 205.878 63.545 205.734 63.545V63.545C205.589 63.545 205.451 63.4876 205.349 63.3854C205.246 63.2832 205.189 63.1445 205.189 63V63Z" fill="white"/>
            </g>
            <g opacity="0.68">
                <path opacity="0.68" d="M287.62 63.545C287.476 63.5449 287.337 63.4877 287.235 63.386C287.209 63.3609 287.187 63.3331 287.167 63.303C287.147 63.2731 287.13 63.2417 287.116 63.209C287.103 63.1766 287.093 63.1432 287.086 63.109C287.078 63.0742 287.075 63.0386 287.075 63.003C287.075 62.9674 287.078 62.9318 287.086 62.897C287.093 62.8629 287.103 62.8294 287.116 62.797C287.13 62.7643 287.147 62.7329 287.167 62.703C287.187 62.6731 287.21 62.6453 287.235 62.62C287.26 62.5944 287.288 62.5716 287.318 62.552C287.347 62.5323 287.379 62.5159 287.412 62.503C287.444 62.489 287.478 62.4783 287.512 62.471C287.582 62.458 287.654 62.458 287.724 62.471C287.758 62.4782 287.792 62.489 287.824 62.503C287.857 62.5165 287.888 62.5329 287.918 62.552C287.948 62.5721 287.975 62.5949 288.001 62.62C288.102 62.7229 288.159 62.8609 288.16 63.005C288.16 63.0406 288.156 63.0761 288.149 63.111C288.142 63.1452 288.131 63.1787 288.118 63.211C288.104 63.244 288.087 63.2756 288.067 63.305C288.048 63.3348 288.026 63.3626 288.001 63.388C287.975 63.4131 287.948 63.4359 287.918 63.456C287.888 63.4754 287.857 63.4921 287.824 63.506C287.792 63.5193 287.758 63.5293 287.724 63.536C287.69 63.5429 287.655 63.5459 287.62 63.545V63.545Z" fill="white"/>
            </g>
        </g>
        <g opacity="0.68">
            <g opacity="0.68">
                <path opacity="0.68" d="M197.545 54.105C197.401 54.1044 197.263 54.0473 197.16 53.946C197.058 53.8435 197.001 53.7053 197 53.561C197.001 53.4164 197.058 53.2779 197.16 53.175C197.263 53.074 197.401 53.017 197.545 53.016C197.689 53.0165 197.827 53.0736 197.93 53.175C198.032 53.2779 198.089 53.4164 198.09 53.561C198.089 53.7054 198.032 53.8438 197.93 53.946C197.828 54.0478 197.689 54.105 197.545 54.105V54.105Z" fill="white"/>
            </g>
            <g opacity="0.68">
                <path opacity="0.68" d="M278.886 53.561C278.886 53.4165 278.943 53.2778 279.046 53.1756C279.148 53.0734 279.286 53.016 279.431 53.016C279.576 53.016 279.714 53.0734 279.816 53.1756C279.919 53.2778 279.976 53.4165 279.976 53.561C279.976 53.6325 279.962 53.7034 279.934 53.7694C279.907 53.8355 279.867 53.8955 279.816 53.946C279.766 53.9966 279.706 54.0366 279.639 54.0639C279.573 54.0912 279.502 54.1051 279.431 54.105C279.359 54.1051 279.289 54.0912 279.222 54.0639C279.156 54.0366 279.096 53.9966 279.046 53.946C278.995 53.8955 278.955 53.8355 278.927 53.7694C278.9 53.7034 278.886 53.6325 278.886 53.561V53.561ZM270.698 53.561C270.698 53.4165 270.755 53.2778 270.858 53.1756C270.96 53.0734 271.098 53.016 271.243 53.016C271.388 53.016 271.526 53.0734 271.628 53.1756C271.731 53.2778 271.788 53.4165 271.788 53.561C271.788 53.6325 271.774 53.7034 271.746 53.7694C271.719 53.8355 271.679 53.8955 271.628 53.946C271.578 53.9966 271.518 54.0366 271.451 54.0639C271.385 54.0912 271.315 54.1051 271.243 54.105V54.105C271.171 54.1051 271.101 54.0912 271.034 54.0639C270.968 54.0366 270.908 53.9966 270.858 53.946C270.807 53.8955 270.767 53.8355 270.74 53.7694C270.712 53.7034 270.698 53.6325 270.698 53.561V53.561ZM262.509 53.561C262.509 53.4165 262.566 53.2778 262.669 53.1756C262.771 53.0734 262.909 53.016 263.054 53.016C263.198 53.016 263.337 53.0734 263.439 53.1756C263.542 53.2778 263.599 53.4165 263.599 53.561C263.599 53.6325 263.585 53.7034 263.557 53.7694C263.53 53.8355 263.49 53.8955 263.439 53.946C263.389 53.9966 263.329 54.0366 263.262 54.0639C263.196 54.0912 263.125 54.1051 263.054 54.105C262.982 54.1051 262.912 54.0912 262.846 54.0639C262.779 54.0366 262.719 53.9966 262.669 53.946C262.618 53.8955 262.578 53.8355 262.55 53.7694C262.523 53.7034 262.509 53.6325 262.509 53.561V53.561ZM254.321 53.561C254.321 53.4165 254.378 53.2778 254.481 53.1756C254.583 53.0734 254.721 53.016 254.866 53.016V53.016C255.011 53.016 255.149 53.0734 255.251 53.1756C255.354 53.2778 255.411 53.4165 255.411 53.561C255.411 53.6325 255.397 53.7034 255.369 53.7694C255.342 53.8355 255.302 53.8955 255.251 53.946C255.201 53.9966 255.141 54.0366 255.074 54.0639C255.008 54.0912 254.937 54.1051 254.866 54.105C254.794 54.1051 254.724 54.0912 254.657 54.0639C254.591 54.0366 254.531 53.9966 254.481 53.946C254.43 53.8955 254.39 53.8355 254.362 53.7694C254.335 53.7034 254.321 53.6325 254.321 53.561V53.561ZM246.132 53.561C246.132 53.4165 246.189 53.2778 246.292 53.1756C246.394 53.0734 246.532 53.016 246.677 53.016C246.749 53.016 246.819 53.0301 246.885 53.0575C246.951 53.0849 247.011 53.1251 247.062 53.1757C247.113 53.2263 247.153 53.2864 247.18 53.3525C247.207 53.4186 247.221 53.4895 247.221 53.561V53.561C247.221 53.6325 247.207 53.7033 247.18 53.7693C247.153 53.8354 247.112 53.8954 247.062 53.946C247.011 53.9965 246.951 54.0366 246.885 54.0639C246.819 54.0911 246.748 54.1051 246.677 54.105V54.105C246.605 54.1051 246.535 54.0912 246.469 54.0639C246.402 54.0366 246.342 53.9966 246.292 53.946C246.241 53.8955 246.201 53.8355 246.173 53.7694C246.146 53.7034 246.132 53.6325 246.132 53.561V53.561ZM237.944 53.561C237.944 53.4165 238.001 53.2778 238.104 53.1756C238.206 53.0734 238.344 53.016 238.489 53.016C238.56 53.016 238.631 53.0301 238.697 53.0575C238.763 53.0849 238.823 53.1251 238.874 53.1757C238.925 53.2263 238.965 53.2864 238.992 53.3525C239.019 53.4186 239.033 53.4895 239.033 53.561V53.561C239.033 53.6325 239.019 53.7033 238.992 53.7693C238.965 53.8354 238.925 53.8954 238.874 53.946C238.823 53.9965 238.763 54.0366 238.697 54.0639C238.631 54.0911 238.56 54.1051 238.489 54.105C238.417 54.1051 238.347 54.0912 238.281 54.0639C238.214 54.0366 238.154 53.9966 238.104 53.946C238.053 53.8955 238.013 53.8355 237.985 53.7694C237.958 53.7034 237.944 53.6325 237.944 53.561V53.561ZM229.755 53.561C229.755 53.4895 229.769 53.4186 229.796 53.3525C229.823 53.2864 229.863 53.2263 229.914 53.1757C229.964 53.1251 230.025 53.0849 230.091 53.0575C230.157 53.0301 230.227 53.016 230.299 53.016C230.443 53.016 230.582 53.0734 230.684 53.1756C230.787 53.2778 230.844 53.4165 230.844 53.561C230.844 53.6325 230.83 53.7034 230.802 53.7694C230.775 53.8355 230.735 53.8955 230.684 53.946C230.634 53.9966 230.574 54.0366 230.507 54.0639C230.441 54.0912 230.37 54.1051 230.299 54.105C230.227 54.1051 230.157 54.0911 230.091 54.0639C230.025 54.0366 229.965 53.9965 229.914 53.946C229.863 53.8954 229.823 53.8354 229.796 53.7693C229.769 53.7033 229.755 53.6325 229.755 53.561V53.561ZM221.567 53.561C221.567 53.4895 221.581 53.4186 221.608 53.3525C221.635 53.2864 221.675 53.2263 221.726 53.1757C221.776 53.1251 221.837 53.0849 221.903 53.0575C221.969 53.0301 222.039 53.016 222.111 53.016C222.256 53.016 222.394 53.0734 222.496 53.1756C222.599 53.2778 222.656 53.4165 222.656 53.561C222.656 53.6325 222.642 53.7034 222.615 53.7694C222.587 53.8355 222.547 53.8955 222.496 53.946C222.446 53.9966 222.386 54.0366 222.319 54.0639C222.253 54.0912 222.182 54.1051 222.111 54.105V54.105C222.039 54.1054 221.968 54.0916 221.902 54.0644C221.836 54.0373 221.775 53.9972 221.725 53.9467C221.674 53.8961 221.634 53.836 221.606 53.7698C221.579 53.7036 221.565 53.6326 221.565 53.561H221.567ZM213.377 53.561C213.377 53.4165 213.434 53.2778 213.537 53.1756C213.639 53.0734 213.777 53.016 213.922 53.016C214.067 53.016 214.205 53.0734 214.307 53.1756C214.41 53.2778 214.467 53.4165 214.467 53.561C214.467 53.6325 214.453 53.7034 214.425 53.7694C214.398 53.8355 214.358 53.8955 214.307 53.946C214.257 53.9966 214.197 54.0366 214.13 54.0639C214.064 54.0912 213.994 54.1051 213.922 54.105C213.85 54.1051 213.78 54.0912 213.714 54.0639C213.647 54.0366 213.587 53.9966 213.537 53.946C213.486 53.8955 213.446 53.8355 213.418 53.7694C213.391 53.7034 213.377 53.6325 213.377 53.561V53.561ZM205.189 53.561C205.189 53.4165 205.246 53.2778 205.349 53.1756C205.451 53.0734 205.589 53.016 205.734 53.016V53.016C205.878 53.016 206.017 53.0734 206.119 53.1756C206.222 53.2778 206.279 53.4165 206.279 53.561V53.561C206.279 53.6325 206.265 53.7034 206.237 53.7694C206.21 53.8355 206.17 53.8955 206.119 53.946C206.069 53.9966 206.009 54.0366 205.942 54.0639C205.876 54.0912 205.805 54.1051 205.734 54.105V54.105C205.662 54.1051 205.592 54.0912 205.526 54.0639C205.459 54.0366 205.399 53.9966 205.349 53.946C205.298 53.8955 205.258 53.8355 205.23 53.7694C205.203 53.7034 205.189 53.6325 205.189 53.561V53.561Z" fill="white"/>
            </g>
            <g opacity="0.68">
                <path opacity="0.68" d="M287.62 54.105C287.476 54.1049 287.337 54.0477 287.235 53.946C287.184 53.8955 287.144 53.8355 287.117 53.7694C287.089 53.7034 287.075 53.6325 287.075 53.561C287.075 53.4163 287.133 53.2776 287.235 53.175C287.338 53.0738 287.476 53.0167 287.62 53.016C287.764 53.0171 287.903 53.0741 288.006 53.175C288.107 53.2783 288.164 53.4166 288.165 53.561C288.164 53.7051 288.107 53.8432 288.006 53.946C287.98 53.9711 287.953 53.9939 287.923 54.014C287.893 54.0333 287.862 54.0504 287.829 54.065C287.797 54.0779 287.763 54.0879 287.729 54.095C287.693 54.1026 287.657 54.1059 287.62 54.105V54.105Z" fill="white"/>
            </g>
        </g>
        <g opacity="0.68">
            <g opacity="0.68">
                <path opacity="0.68" d="M197.545 44.666C197.401 44.6658 197.262 44.6087 197.16 44.507C197.135 44.4817 197.112 44.4539 197.093 44.424C197.073 44.3946 197.056 44.3631 197.042 44.33C197.029 44.2977 197.018 44.2642 197.011 44.23C197.004 44.1951 197 44.1596 197 44.124C197.001 43.9797 197.058 43.8415 197.16 43.739C197.262 43.6374 197.401 43.58 197.545 43.579C197.689 43.5796 197.828 43.6371 197.93 43.739C198.032 43.8415 198.089 43.9797 198.09 44.124C198.09 44.1596 198.086 44.1951 198.079 44.23C198.072 44.2643 198.061 44.2978 198.047 44.33C198.034 44.363 198.018 44.3945 197.998 44.424C197.978 44.4537 197.955 44.4814 197.93 44.507C197.879 44.5575 197.819 44.5976 197.753 44.6249C197.687 44.6522 197.616 44.6661 197.545 44.666V44.666Z" fill="white"/>
            </g>
            <g opacity="0.68">
                <path opacity="0.68" d="M278.886 44.121C278.886 43.9765 278.943 43.8378 279.046 43.7356C279.148 43.6334 279.286 43.576 279.431 43.576C279.576 43.576 279.714 43.6334 279.816 43.7356C279.919 43.8378 279.976 43.9765 279.976 44.121C279.976 44.2655 279.919 44.4042 279.816 44.5064C279.714 44.6086 279.576 44.666 279.431 44.666C279.286 44.666 279.148 44.6086 279.046 44.5064C278.943 44.4042 278.886 44.2655 278.886 44.121ZM270.698 44.121C270.698 43.9765 270.755 43.8378 270.858 43.7356C270.96 43.6334 271.098 43.576 271.243 43.576C271.388 43.576 271.526 43.6334 271.628 43.7356C271.731 43.8378 271.788 43.9765 271.788 44.121C271.788 44.2655 271.731 44.4042 271.628 44.5064C271.526 44.6086 271.388 44.666 271.243 44.666V44.666C271.098 44.666 270.96 44.6086 270.858 44.5064C270.755 44.4042 270.698 44.2655 270.698 44.121ZM262.509 44.121C262.509 43.9765 262.566 43.8378 262.669 43.7356C262.771 43.6334 262.909 43.576 263.054 43.576C263.198 43.576 263.337 43.6334 263.439 43.7356C263.542 43.8378 263.599 43.9765 263.599 44.121C263.599 44.2655 263.542 44.4042 263.439 44.5064C263.337 44.6086 263.198 44.666 263.054 44.666C262.909 44.666 262.771 44.6086 262.669 44.5064C262.566 44.4042 262.509 44.2655 262.509 44.121ZM254.321 44.121C254.321 43.9765 254.378 43.8378 254.481 43.7356C254.583 43.6334 254.721 43.576 254.866 43.576V43.576C255.011 43.576 255.149 43.6334 255.251 43.7356C255.354 43.8378 255.411 43.9765 255.411 44.121C255.411 44.2655 255.354 44.4042 255.251 44.5064C255.149 44.6086 255.011 44.666 254.866 44.666C254.794 44.666 254.724 44.6519 254.657 44.6245C254.591 44.5971 254.531 44.557 254.481 44.5064C254.43 44.4558 254.39 44.3957 254.362 44.3296C254.335 44.2635 254.321 44.1926 254.321 44.121V44.121ZM246.132 44.121C246.132 43.9765 246.189 43.8378 246.292 43.7356C246.394 43.6334 246.532 43.576 246.677 43.576C246.749 43.576 246.819 43.5901 246.885 43.6175C246.951 43.6449 247.011 43.6851 247.062 43.7357C247.113 43.7863 247.153 43.8464 247.18 43.9125C247.207 43.9786 247.221 44.0495 247.221 44.121C247.221 44.1925 247.207 44.2634 247.18 44.3295C247.153 44.3956 247.113 44.4557 247.062 44.5063C247.011 44.5569 246.951 44.5971 246.885 44.6245C246.819 44.6519 246.749 44.666 246.677 44.666V44.666C246.605 44.666 246.535 44.6519 246.468 44.6245C246.402 44.5971 246.342 44.557 246.292 44.5064C246.241 44.4558 246.201 44.3957 246.173 44.3296C246.146 44.2635 246.132 44.1926 246.132 44.121V44.121ZM237.944 44.121C237.944 43.9765 238.001 43.8378 238.104 43.7356C238.206 43.6334 238.344 43.576 238.489 43.576C238.56 43.576 238.631 43.5901 238.697 43.6175C238.763 43.6449 238.823 43.6851 238.874 43.7357C238.925 43.7863 238.965 43.8464 238.992 43.9125C239.019 43.9786 239.033 44.0495 239.033 44.121V44.121C239.033 44.1925 239.019 44.2634 238.992 44.3295C238.965 44.3956 238.925 44.4557 238.874 44.5063C238.823 44.5569 238.763 44.5971 238.697 44.6245C238.631 44.6519 238.56 44.666 238.489 44.666C238.417 44.666 238.347 44.6519 238.28 44.6245C238.214 44.5971 238.154 44.557 238.104 44.5064C238.053 44.4558 238.013 44.3957 237.985 44.3296C237.958 44.2635 237.944 44.1926 237.944 44.121V44.121ZM229.755 44.121C229.755 44.0495 229.769 43.9786 229.796 43.9125C229.823 43.8464 229.863 43.7863 229.914 43.7357C229.964 43.6851 230.025 43.6449 230.091 43.6175C230.157 43.5901 230.227 43.576 230.299 43.576V43.576C230.443 43.576 230.582 43.6334 230.684 43.7356C230.787 43.8378 230.844 43.9765 230.844 44.121C230.844 44.2655 230.787 44.4042 230.684 44.5064C230.582 44.6086 230.443 44.666 230.299 44.666C230.227 44.666 230.157 44.6519 230.091 44.6245C230.025 44.5971 229.964 44.5569 229.914 44.5063C229.863 44.4557 229.823 44.3956 229.796 44.3295C229.769 44.2634 229.755 44.1925 229.755 44.121V44.121ZM221.567 44.121C221.567 44.0495 221.581 43.9786 221.608 43.9125C221.635 43.8464 221.675 43.7863 221.726 43.7357C221.776 43.6851 221.837 43.6449 221.903 43.6175C221.969 43.5901 222.039 43.576 222.111 43.576V43.576C222.256 43.576 222.394 43.6334 222.496 43.7356C222.599 43.8378 222.656 43.9765 222.656 44.121C222.656 44.2655 222.599 44.4042 222.496 44.5064C222.394 44.6086 222.256 44.666 222.111 44.666C222.039 44.6663 221.968 44.6524 221.902 44.6251C221.836 44.5978 221.775 44.5577 221.725 44.507C221.674 44.4564 221.634 44.3962 221.606 44.33C221.579 44.2637 221.565 44.1927 221.565 44.121H221.567ZM213.377 44.121C213.377 43.9765 213.434 43.8378 213.537 43.7356C213.639 43.6334 213.777 43.576 213.922 43.576C214.067 43.576 214.205 43.6334 214.307 43.7356C214.41 43.8378 214.467 43.9765 214.467 44.121C214.467 44.2655 214.41 44.4042 214.307 44.5064C214.205 44.6086 214.067 44.666 213.922 44.666C213.777 44.666 213.639 44.6086 213.537 44.5064C213.434 44.4042 213.377 44.2655 213.377 44.121ZM205.189 44.121C205.189 43.9765 205.246 43.8378 205.349 43.7356C205.451 43.6334 205.589 43.576 205.734 43.576V43.576C205.878 43.576 206.017 43.6334 206.119 43.7356C206.222 43.8378 206.279 43.9765 206.279 44.121V44.121C206.279 44.2655 206.222 44.4042 206.119 44.5064C206.017 44.6086 205.878 44.666 205.734 44.666V44.666C205.589 44.666 205.451 44.6086 205.349 44.5064C205.246 44.4042 205.189 44.2655 205.189 44.121V44.121Z" fill="white"/>
            </g>
            <g opacity="0.68">
                <path opacity="0.68" d="M287.62 44.666C287.584 44.6664 287.549 44.6627 287.514 44.655C287.48 44.6484 287.446 44.6383 287.414 44.625C287.381 44.6114 287.35 44.5946 287.32 44.575C287.29 44.5551 287.262 44.5323 287.237 44.507C287.212 44.4817 287.189 44.4539 287.169 44.424C287.149 44.3941 287.132 44.3627 287.118 44.33C287.105 44.2976 287.095 44.2642 287.088 44.23C287.08 44.1952 287.077 44.1596 287.077 44.124C287.077 43.9796 287.135 43.8412 287.237 43.739C287.339 43.637 287.478 43.5795 287.622 43.579C287.767 43.5799 287.905 43.6373 288.008 43.739C288.032 43.7646 288.054 43.7924 288.074 43.822C288.094 43.8515 288.111 43.883 288.125 43.916C288.138 43.9484 288.149 43.9818 288.156 44.016C288.163 44.0509 288.167 44.0864 288.167 44.122C288.167 44.1576 288.163 44.1931 288.156 44.228C288.149 44.2622 288.138 44.2957 288.125 44.328C288.111 44.361 288.094 44.3926 288.074 44.422C288.054 44.4516 288.032 44.4794 288.008 44.505C287.905 44.608 287.766 44.6659 287.62 44.666V44.666Z" fill="white"/>
            </g>
        </g>
    </g>
    <path d="M223.381 139.059C223.381 138.969 223.417 138.883 223.48 138.819C223.544 138.756 223.63 138.72 223.72 138.72C225.115 138.72 225.809 139.83 226.42 140.81C227.014 141.759 227.527 142.58 228.545 142.58C229.563 142.58 230.076 141.758 230.67 140.81C231.282 139.83 231.976 138.72 233.37 138.72C234.764 138.72 235.459 139.83 236.07 140.81C236.664 141.759 237.177 142.58 238.195 142.58C239.213 142.58 239.726 141.758 240.318 140.81C240.93 139.83 241.624 138.72 243.018 138.72C244.412 138.72 245.107 139.83 245.718 140.81C246.312 141.759 246.825 142.58 247.843 142.58C248.861 142.58 249.374 141.758 249.968 140.81C250.58 139.83 251.274 138.72 252.668 138.72C254.062 138.72 254.757 139.83 255.368 140.81C255.962 141.759 256.475 142.58 257.493 142.58C258.511 142.58 259.024 141.758 259.618 140.81C260.23 139.83 260.924 138.72 262.318 138.72C263.712 138.72 264.408 139.83 265.018 140.81C265.612 141.759 266.125 142.58 267.144 142.58C268.163 142.58 268.675 141.758 269.269 140.81C269.881 139.83 270.575 138.72 271.969 138.72C272.059 138.72 272.145 138.756 272.208 138.82C272.272 138.883 272.308 138.969 272.308 139.059C272.308 139.149 272.272 139.235 272.209 139.299C272.145 139.362 272.059 139.398 271.969 139.398C270.951 139.398 270.438 140.218 269.844 141.17C269.232 142.149 268.538 143.259 267.144 143.259C265.75 143.259 265.054 142.149 264.444 141.17C263.85 140.218 263.337 139.398 262.319 139.398C261.301 139.398 260.788 140.218 260.194 141.17C259.582 142.149 258.888 143.259 257.494 143.259C256.1 143.259 255.405 142.149 254.794 141.17C254.2 140.218 253.687 139.398 252.669 139.398C251.651 139.398 251.138 140.218 250.544 141.17C249.932 142.149 249.238 143.259 247.844 143.259C246.45 143.259 245.755 142.149 245.144 141.17C244.55 140.218 244.037 139.398 243.019 139.398C242.001 139.398 241.488 140.218 240.896 141.17C240.284 142.149 239.589 143.259 238.196 143.259C236.803 143.259 236.107 142.149 235.496 141.17C234.902 140.218 234.389 139.398 233.371 139.398C232.353 139.398 231.84 140.218 231.246 141.17C230.634 142.149 229.94 143.259 228.546 143.259C227.152 143.259 226.457 142.149 225.846 141.17C225.252 140.218 224.739 139.398 223.721 139.398C223.676 139.398 223.632 139.39 223.591 139.373C223.549 139.356 223.512 139.331 223.48 139.299C223.449 139.268 223.424 139.23 223.407 139.189C223.39 139.148 223.381 139.104 223.381 139.059V139.059Z" fill="white"/>
</svg>
